<svg width="24" height="24" viewBox="0 0 24 24" fill="none" xmlns="http://www.w3.org/2000/svg">
  <path d="M7 10C7.5 8 9 6.5 11 7C12.5 7.3 13.5 6 14.5 5.5C15.5 5 17 5.5 17.5 7C18 8.5 18 10 17 11.5C16 13 15 13.5 13.5 13C12 12.5 11 14 10 15C9 16 7 15.5 6 14C5 12.5 6.5 11.5 7 10Z" fill="currentColor" opacity="0.9"/>
  <path d="M6.5 12C7 10.5 8.5 10 10 10.5C11.5 11 12.5 9.5 14 9C15.5 8.5 16.5 10 17 11.5C17.5 13 16.5 14.5 15 15C13.5 15.5 12 15 11 16.5C10 18 8 17.5 6.5 16C5 14.5 6 13.5 6.5 12Z" fill="currentColor" opacity="0.6"/>
</svg>
